<?xml version="1.0" encoding="utf-8"?>
<!-- Generator: Adobe Illustrator 28.1.0, SVG Export Plug-In . SVG Version: 6.00 Build 0)  -->
<svg version="1.2" baseProfile="tiny" id="Ebene_1" xmlns="http://www.w3.org/2000/svg" xmlns:xlink="http://www.w3.org/1999/xlink"
	 x="0px" y="0px" viewBox="0 0 102 102" overflow="visible" xml:space="preserve">
<path fill="#445D81" d="M52.8,13.8h22c0.2,0,0.4,0.2,0.4,0.4v22c0,0.2-0.2,0.4-0.4,0.4h-22c-0.2,0-0.4-0.2-0.4-0.4v-22
	C52.4,14,52.6,13.8,52.8,13.8z"/>
<path fill="#111112" d="M27,39.6h22.2c0.2,0,0.3,0.1,0.3,0.3v22.2c0,0.2-0.1,0.3-0.3,0.3H27c-0.2,0-0.3-0.1-0.3-0.3V39.9
	C26.7,39.7,26.9,39.6,27,39.6z"/>
<path fill="#445D81" d="M52.7,39.6h22.2c0.2,0,0.3,0.1,0.3,0.3v22.2c0,0.2-0.1,0.3-0.3,0.3H52.7c-0.2,0-0.3-0.1-0.3-0.3V39.9
	C52.4,39.7,52.5,39.6,52.7,39.6z"/>
<path fill="#445D81" d="M78.4,39.6h22.3c0.2,0,0.3,0.1,0.3,0.3v22.3c0,0.2-0.1,0.3-0.3,0.3H78.4c-0.2,0-0.3-0.1-0.3-0.3V39.9
	C78.1,39.7,78.2,39.6,78.4,39.6z"/>
<path fill="#111112" d="M1.3,65.3h22.2c0.2,0,0.3,0.2,0.3,0.3v22.2c0,0.2-0.2,0.3-0.3,0.3H1.3C1.2,88.2,1,88,1,87.8V65.6
	C1,65.4,1.2,65.3,1.3,65.3z"/>
<path fill="#111112" d="M27.1,65.3h22.1c0.2,0,0.4,0.2,0.4,0.4v22.1c0,0.2-0.2,0.4-0.4,0.4H27.1c-0.2,0-0.4-0.2-0.4-0.4V65.7
	C26.7,65.5,26.9,65.3,27.1,65.3z"/>
<path fill="#445D81" d="M78.5,65.3l22.1,0c0.2,0,0.4,0.2,0.4,0.4l0,22.2c0,0.2-0.2,0.4-0.4,0.4l-22.1,0c-0.2,0-0.4-0.2-0.4-0.4
	l0-22.2C78.1,65.4,78.3,65.3,78.5,65.3z"/>
<path fill="#111112" d="M52.8,65.3h22.1c0.2,0,0.4,0.2,0.4,0.4v22.1c0,0.2-0.2,0.4-0.4,0.4H52.8c-0.2,0-0.4-0.2-0.4-0.4V65.7
	C52.4,65.5,52.6,65.3,52.8,65.3z"/>
</svg>
